<mxfile host="app.diagrams.net" modified="2023-05-04T01:04:20.207Z" agent="Mozilla/5.0 (Windows NT 10.0; Win64; x64) AppleWebKit/537.36 (KHTML, like Gecko) Chrome/112.0.0.0 Safari/537.36" etag="mQ12tG-tUqGC5Wn5p-B8" version="21.1.7" type="github" pages="4">
  <diagram name="ekiga_main" id="13e1069c-82ec-6db2-03f1-153e76fe0fe0">
    <mxGraphModel dx="1372" dy="1654" grid="1" gridSize="10" guides="1" tooltips="1" connect="1" arrows="1" fold="1" page="1" pageScale="1" pageWidth="1100" pageHeight="850" background="none" math="0" shadow="0">
      <root>
        <mxCell id="0" />
        <mxCell id="1" parent="0" />
        <mxCell id="7baba1c4bc27f4b0-2" value=":Object" style="shape=umlLifeline;perimeter=lifelinePerimeter;whiteSpace=wrap;html=1;container=1;collapsible=0;recursiveResize=0;outlineConnect=0;rounded=1;shadow=0;comic=0;labelBackgroundColor=none;strokeWidth=1;fontFamily=Verdana;fontSize=12;align=center;" parent="1" vertex="1">
          <mxGeometry x="240" y="80" width="100" height="580" as="geometry" />
        </mxCell>
        <mxCell id="7baba1c4bc27f4b0-10" value="" style="html=1;points=[];perimeter=orthogonalPerimeter;rounded=0;shadow=0;comic=0;labelBackgroundColor=none;strokeWidth=1;fontFamily=Verdana;fontSize=12;align=center;" parent="7baba1c4bc27f4b0-2" vertex="1">
          <mxGeometry x="45" y="100" width="10" height="230" as="geometry" />
        </mxCell>
        <mxCell id="7baba1c4bc27f4b0-3" value="encoder_set_options" style="shape=umlLifeline;perimeter=lifelinePerimeter;whiteSpace=wrap;html=1;container=1;collapsible=0;recursiveResize=0;outlineConnect=0;rounded=1;shadow=0;comic=0;labelBackgroundColor=none;strokeWidth=1;fontFamily=Verdana;fontSize=12;align=center;" parent="1" vertex="1">
          <mxGeometry x="400" y="80" width="100" height="580" as="geometry" />
        </mxCell>
        <mxCell id="7baba1c4bc27f4b0-13" value="" style="html=1;points=[];perimeter=orthogonalPerimeter;rounded=0;shadow=0;comic=0;labelBackgroundColor=none;strokeWidth=1;fontFamily=Verdana;fontSize=12;align=center;" parent="7baba1c4bc27f4b0-3" vertex="1">
          <mxGeometry x="45" y="120" width="10" height="200" as="geometry" />
        </mxCell>
        <mxCell id="7baba1c4bc27f4b0-4" value="SetOptions" style="shape=umlLifeline;perimeter=lifelinePerimeter;whiteSpace=wrap;html=1;container=1;collapsible=0;recursiveResize=0;outlineConnect=0;rounded=1;shadow=0;comic=0;labelBackgroundColor=none;strokeWidth=1;fontFamily=Verdana;fontSize=12;align=center;" parent="1" vertex="1">
          <mxGeometry x="540" y="80" width="100" height="580" as="geometry" />
        </mxCell>
        <mxCell id="7baba1c4bc27f4b0-5" value="SetOption" style="shape=umlLifeline;perimeter=lifelinePerimeter;whiteSpace=wrap;html=1;container=1;collapsible=0;recursiveResize=0;outlineConnect=0;rounded=1;shadow=0;comic=0;labelBackgroundColor=none;strokeWidth=1;fontFamily=Verdana;fontSize=12;align=center;" parent="1" vertex="1">
          <mxGeometry x="680" y="80" width="100" height="580" as="geometry" />
        </mxCell>
        <mxCell id="7baba1c4bc27f4b0-6" value="C9VideoEncSetOptions" style="shape=umlLifeline;perimeter=lifelinePerimeter;whiteSpace=wrap;html=1;container=1;collapsible=0;recursiveResize=0;outlineConnect=0;rounded=1;shadow=0;comic=0;labelBackgroundColor=none;strokeWidth=1;fontFamily=Verdana;fontSize=12;align=center;" parent="1" vertex="1">
          <mxGeometry x="820" y="80" width="100" height="580" as="geometry" />
        </mxCell>
        <mxCell id="ijWDm0RKz5ggMyt9_muB-8" value="" style="html=1;points=[];perimeter=orthogonalPerimeter;outlineConnect=0;targetShapes=umlLifeline;portConstraint=eastwest;newEdgeStyle={&quot;edgeStyle&quot;:&quot;elbowEdgeStyle&quot;,&quot;elbow&quot;:&quot;vertical&quot;,&quot;curved&quot;:0,&quot;rounded&quot;:0};" vertex="1" parent="7baba1c4bc27f4b0-6">
          <mxGeometry x="45" y="190" width="10" height="40" as="geometry" />
        </mxCell>
        <mxCell id="ijWDm0RKz5ggMyt9_muB-9" value="dispatch" style="html=1;verticalAlign=bottom;endArrow=block;entryX=0;entryY=0;labelBackgroundColor=none;fontFamily=Verdana;fontSize=12;edgeStyle=elbowEdgeStyle;elbow=vertical;" edge="1" parent="7baba1c4bc27f4b0-6">
          <mxGeometry relative="1" as="geometry">
            <mxPoint x="-85" y="190" as="sourcePoint" />
            <mxPoint x="45" y="190" as="targetPoint" />
          </mxGeometry>
        </mxCell>
        <mxCell id="ijWDm0RKz5ggMyt9_muB-36" value="dispatch" style="html=1;verticalAlign=bottom;endArrow=block;edgeStyle=elbowEdgeStyle;elbow=vertical;curved=0;rounded=0;" edge="1" parent="7baba1c4bc27f4b0-6" target="7baba1c4bc27f4b0-7">
          <mxGeometry x="-0.0026" relative="1" as="geometry">
            <mxPoint x="55" y="209.5" as="sourcePoint" />
            <mxPoint x="245.5" y="209.5" as="targetPoint" />
            <mxPoint as="offset" />
          </mxGeometry>
        </mxCell>
        <mxCell id="7baba1c4bc27f4b0-7" value="Adapter_Venc_setDynamicParam" style="shape=umlLifeline;perimeter=lifelinePerimeter;whiteSpace=wrap;html=1;container=1;collapsible=0;recursiveResize=0;outlineConnect=0;rounded=1;shadow=0;comic=0;labelBackgroundColor=none;strokeWidth=1;fontFamily=Verdana;fontSize=12;align=center;" parent="1" vertex="1">
          <mxGeometry x="1050" y="80" width="145" height="580" as="geometry" />
        </mxCell>
        <mxCell id="7baba1c4bc27f4b0-25" value="" style="html=1;points=[];perimeter=orthogonalPerimeter;rounded=0;shadow=0;comic=0;labelBackgroundColor=none;strokeColor=#000000;strokeWidth=1;fillColor=#FFFFFF;fontFamily=Verdana;fontSize=12;fontColor=#000000;align=center;" parent="7baba1c4bc27f4b0-7" vertex="1">
          <mxGeometry x="40" y="380" width="10" height="30" as="geometry" />
        </mxCell>
        <mxCell id="ijWDm0RKz5ggMyt9_muB-10" value="" style="html=1;points=[];perimeter=orthogonalPerimeter;outlineConnect=0;targetShapes=umlLifeline;portConstraint=eastwest;newEdgeStyle={&quot;edgeStyle&quot;:&quot;elbowEdgeStyle&quot;,&quot;elbow&quot;:&quot;vertical&quot;,&quot;curved&quot;:0,&quot;rounded&quot;:0};" vertex="1" parent="7baba1c4bc27f4b0-7">
          <mxGeometry x="70" y="210" width="10" height="50" as="geometry" />
        </mxCell>
        <mxCell id="7baba1c4bc27f4b0-8" value=":Object" style="shape=umlLifeline;perimeter=lifelinePerimeter;whiteSpace=wrap;html=1;container=1;collapsible=0;recursiveResize=0;outlineConnect=0;rounded=1;shadow=0;comic=0;labelBackgroundColor=none;strokeWidth=1;fontFamily=Verdana;fontSize=12;align=center;" parent="1" vertex="1">
          <mxGeometry x="100" y="80" width="100" height="580" as="geometry" />
        </mxCell>
        <mxCell id="7baba1c4bc27f4b0-9" value="" style="html=1;points=[];perimeter=orthogonalPerimeter;rounded=0;shadow=0;comic=0;labelBackgroundColor=none;strokeWidth=1;fontFamily=Verdana;fontSize=12;align=center;" parent="7baba1c4bc27f4b0-8" vertex="1">
          <mxGeometry x="45" y="100" width="10" height="440" as="geometry" />
        </mxCell>
        <mxCell id="7baba1c4bc27f4b0-16" value="" style="html=1;points=[];perimeter=orthogonalPerimeter;rounded=0;shadow=0;comic=0;labelBackgroundColor=none;strokeWidth=1;fontFamily=Verdana;fontSize=12;align=center;" parent="1" vertex="1">
          <mxGeometry x="585" y="220" width="10" height="180" as="geometry" />
        </mxCell>
        <mxCell id="7baba1c4bc27f4b0-17" value="dispatch" style="html=1;verticalAlign=bottom;endArrow=block;labelBackgroundColor=none;fontFamily=Verdana;fontSize=12;edgeStyle=elbowEdgeStyle;elbow=vertical;" parent="1" source="7baba1c4bc27f4b0-13" target="7baba1c4bc27f4b0-16" edge="1">
          <mxGeometry relative="1" as="geometry">
            <mxPoint x="510" y="220" as="sourcePoint" />
            <Array as="points">
              <mxPoint x="460" y="220" />
            </Array>
          </mxGeometry>
        </mxCell>
        <mxCell id="7baba1c4bc27f4b0-19" value="" style="html=1;points=[];perimeter=orthogonalPerimeter;rounded=0;shadow=0;comic=0;labelBackgroundColor=none;strokeWidth=1;fontFamily=Verdana;fontSize=12;align=center;" parent="1" vertex="1">
          <mxGeometry x="725" y="230" width="10" height="40" as="geometry" />
        </mxCell>
        <mxCell id="7baba1c4bc27f4b0-20" value="dispatch" style="html=1;verticalAlign=bottom;endArrow=block;entryX=0;entryY=0;labelBackgroundColor=none;fontFamily=Verdana;fontSize=12;edgeStyle=elbowEdgeStyle;elbow=vertical;" parent="1" source="7baba1c4bc27f4b0-16" target="7baba1c4bc27f4b0-19" edge="1">
          <mxGeometry relative="1" as="geometry">
            <mxPoint x="650" y="230" as="sourcePoint" />
          </mxGeometry>
        </mxCell>
        <mxCell id="7baba1c4bc27f4b0-22" value="" style="html=1;points=[];perimeter=orthogonalPerimeter;rounded=0;shadow=0;comic=0;labelBackgroundColor=none;strokeWidth=1;fontFamily=Verdana;fontSize=12;align=center;" parent="1" vertex="1">
          <mxGeometry x="585" y="440" width="10" height="140" as="geometry" />
        </mxCell>
        <mxCell id="7baba1c4bc27f4b0-23" value="dispatch" style="html=1;verticalAlign=bottom;endArrow=block;entryX=0;entryY=0;labelBackgroundColor=none;fontFamily=Verdana;fontSize=12;" parent="1" source="7baba1c4bc27f4b0-9" target="7baba1c4bc27f4b0-22" edge="1">
          <mxGeometry relative="1" as="geometry">
            <mxPoint x="510" y="420" as="sourcePoint" />
          </mxGeometry>
        </mxCell>
        <mxCell id="7baba1c4bc27f4b0-26" value="dispatch" style="html=1;verticalAlign=bottom;endArrow=block;entryX=0;entryY=0;labelBackgroundColor=none;fontFamily=Verdana;fontSize=12;" parent="1" source="7baba1c4bc27f4b0-22" target="7baba1c4bc27f4b0-25" edge="1">
          <mxGeometry relative="1" as="geometry">
            <mxPoint x="930" y="340" as="sourcePoint" />
          </mxGeometry>
        </mxCell>
        <mxCell id="7baba1c4bc27f4b0-27" value="return" style="html=1;verticalAlign=bottom;endArrow=open;dashed=1;endSize=8;exitX=0;exitY=0.95;labelBackgroundColor=none;fontFamily=Verdana;fontSize=12;" parent="1" source="7baba1c4bc27f4b0-25" target="7baba1c4bc27f4b0-22" edge="1">
          <mxGeometry relative="1" as="geometry">
            <mxPoint x="930" y="416" as="targetPoint" />
          </mxGeometry>
        </mxCell>
        <mxCell id="7baba1c4bc27f4b0-28" value="" style="html=1;points=[];perimeter=orthogonalPerimeter;rounded=0;shadow=0;comic=0;labelBackgroundColor=none;strokeWidth=1;fontFamily=Verdana;fontSize=12;align=center;" parent="1" vertex="1">
          <mxGeometry x="870" y="550" width="10" height="60" as="geometry" />
        </mxCell>
        <mxCell id="7baba1c4bc27f4b0-29" value="dispatch" style="html=1;verticalAlign=bottom;endArrow=block;entryX=0;entryY=0;labelBackgroundColor=none;fontFamily=Verdana;fontSize=12;edgeStyle=elbowEdgeStyle;elbow=vertical;" parent="1" source="7baba1c4bc27f4b0-37" target="7baba1c4bc27f4b0-28" edge="1">
          <mxGeometry relative="1" as="geometry">
            <mxPoint x="800" y="550" as="sourcePoint" />
          </mxGeometry>
        </mxCell>
        <mxCell id="7baba1c4bc27f4b0-30" value="return" style="html=1;verticalAlign=bottom;endArrow=open;dashed=1;endSize=8;labelBackgroundColor=none;fontFamily=Verdana;fontSize=12;edgeStyle=elbowEdgeStyle;elbow=vertical;" parent="1" source="7baba1c4bc27f4b0-28" target="7baba1c4bc27f4b0-9" edge="1">
          <mxGeometry relative="1" as="geometry">
            <mxPoint x="800" y="626" as="targetPoint" />
            <Array as="points">
              <mxPoint x="570" y="600" />
            </Array>
          </mxGeometry>
        </mxCell>
        <mxCell id="7baba1c4bc27f4b0-11" value="dispatch" style="html=1;verticalAlign=bottom;endArrow=block;entryX=0;entryY=0;labelBackgroundColor=none;fontFamily=Verdana;fontSize=12;edgeStyle=elbowEdgeStyle;elbow=vertical;" parent="1" source="7baba1c4bc27f4b0-9" target="7baba1c4bc27f4b0-10" edge="1">
          <mxGeometry relative="1" as="geometry">
            <mxPoint x="220" y="190" as="sourcePoint" />
          </mxGeometry>
        </mxCell>
        <mxCell id="7baba1c4bc27f4b0-14" value="dispatch" style="html=1;verticalAlign=bottom;endArrow=block;entryX=0;entryY=0;labelBackgroundColor=none;fontFamily=Verdana;fontSize=12;edgeStyle=elbowEdgeStyle;elbow=vertical;" parent="1" source="7baba1c4bc27f4b0-10" target="7baba1c4bc27f4b0-13" edge="1">
          <mxGeometry relative="1" as="geometry">
            <mxPoint x="370" y="200" as="sourcePoint" />
          </mxGeometry>
        </mxCell>
        <mxCell id="7baba1c4bc27f4b0-34" value="" style="html=1;points=[];perimeter=orthogonalPerimeter;rounded=0;shadow=0;comic=0;labelBackgroundColor=none;strokeWidth=1;fontFamily=Verdana;fontSize=12;align=center;" parent="1" vertex="1">
          <mxGeometry x="590" y="300" width="10" height="70" as="geometry" />
        </mxCell>
        <mxCell id="7baba1c4bc27f4b0-36" value="dispatch" style="html=1;verticalAlign=bottom;endArrow=block;labelBackgroundColor=none;fontFamily=Verdana;fontSize=12;elbow=vertical;edgeStyle=orthogonalEdgeStyle;curved=1;exitX=1.066;exitY=0.713;exitPerimeter=0;" parent="1" source="7baba1c4bc27f4b0-34" edge="1">
          <mxGeometry relative="1" as="geometry">
            <mxPoint x="610.3333333333333" y="350" as="sourcePoint" />
            <mxPoint x="595" y="389" as="targetPoint" />
            <Array as="points">
              <mxPoint x="650" y="350" />
              <mxPoint x="650" y="389" />
            </Array>
          </mxGeometry>
        </mxCell>
        <mxCell id="7baba1c4bc27f4b0-37" value="" style="html=1;points=[];perimeter=orthogonalPerimeter;rounded=0;shadow=0;comic=0;labelBackgroundColor=none;strokeWidth=1;fontFamily=Verdana;fontSize=12;align=center;" parent="1" vertex="1">
          <mxGeometry x="590" y="520" width="10" height="40" as="geometry" />
        </mxCell>
        <mxCell id="7baba1c4bc27f4b0-39" value="dispatch" style="html=1;verticalAlign=bottom;endArrow=block;labelBackgroundColor=none;fontFamily=Verdana;fontSize=12;elbow=vertical;edgeStyle=orthogonalEdgeStyle;curved=1;entryX=1;entryY=0.286;entryPerimeter=0;exitX=1.038;exitY=0.345;exitPerimeter=0;" parent="1" edge="1">
          <mxGeometry relative="1" as="geometry">
            <mxPoint x="595.3333333333335" y="501" as="sourcePoint" />
            <mxPoint x="600.3333333333335" y="539.3333333333334" as="targetPoint" />
            <Array as="points">
              <mxPoint x="650" y="501" />
              <mxPoint x="650" y="539" />
            </Array>
          </mxGeometry>
        </mxCell>
        <mxCell id="7baba1c4bc27f4b0-40" value="Note" style="shape=note;whiteSpace=wrap;html=1;size=14;verticalAlign=top;align=left;spacingTop=-6;rounded=0;shadow=0;comic=0;labelBackgroundColor=none;strokeWidth=1;fontFamily=Verdana;fontSize=12" parent="1" vertex="1">
          <mxGeometry x="100" y="30" width="100" height="35" as="geometry" />
        </mxCell>
        <mxCell id="7baba1c4bc27f4b0-41" value="Note" style="shape=note;whiteSpace=wrap;html=1;size=14;verticalAlign=top;align=left;spacingTop=-6;rounded=0;shadow=0;comic=0;labelBackgroundColor=none;strokeWidth=1;fontFamily=Verdana;fontSize=12" parent="1" vertex="1">
          <mxGeometry x="240" y="30" width="100" height="35" as="geometry" />
        </mxCell>
        <mxCell id="7baba1c4bc27f4b0-42" value="呼叫时进入&lt;br&gt;theora_plugin.cxx" style="shape=note;whiteSpace=wrap;html=1;size=14;verticalAlign=top;align=left;spacingTop=-6;rounded=0;shadow=0;comic=0;labelBackgroundColor=none;strokeWidth=1;fontFamily=Verdana;fontSize=12" parent="1" vertex="1">
          <mxGeometry x="400" y="30" width="100" height="35" as="geometry" />
        </mxCell>
        <mxCell id="7baba1c4bc27f4b0-43" value="设置所有codec&lt;br&gt;c9-h264.cxx" style="shape=note;whiteSpace=wrap;html=1;size=14;verticalAlign=top;align=left;spacingTop=-6;rounded=0;shadow=0;comic=0;labelBackgroundColor=none;strokeWidth=1;fontFamily=Verdana;fontSize=12" parent="1" vertex="1">
          <mxGeometry x="540" y="30" width="100" height="35" as="geometry" />
        </mxCell>
        <mxCell id="7baba1c4bc27f4b0-45" value="c9_video_conference_api.c" style="shape=note;whiteSpace=wrap;html=1;size=14;verticalAlign=top;align=left;spacingTop=-6;rounded=0;shadow=0;comic=0;labelBackgroundColor=none;strokeWidth=1;fontFamily=Verdana;fontSize=12" parent="1" vertex="1">
          <mxGeometry x="820" y="30" width="100" height="35" as="geometry" />
        </mxCell>
        <mxCell id="7baba1c4bc27f4b0-44" value="协商之后设置媒体格式&lt;br&gt;c9-h264.cxx" style="shape=note;whiteSpace=wrap;html=1;size=14;verticalAlign=top;align=left;spacingTop=-6;rounded=0;shadow=0;comic=0;labelBackgroundColor=none;strokeWidth=1;fontFamily=Verdana;fontSize=12" parent="1" vertex="1">
          <mxGeometry x="680" y="30" width="100" height="35" as="geometry" />
        </mxCell>
        <mxCell id="7baba1c4bc27f4b0-46" value="c9_videoconference_adapter.cpp" style="shape=note;whiteSpace=wrap;html=1;size=14;verticalAlign=top;align=left;spacingTop=-6;rounded=0;shadow=0;comic=0;labelBackgroundColor=none;strokeWidth=1;fontFamily=Verdana;fontSize=12" parent="1" vertex="1">
          <mxGeometry x="1050" y="30" width="100" height="35" as="geometry" />
        </mxCell>
        <mxCell id="gQu-EgqjIdYCseF4d5mw-7" value="" style="edgeStyle=orthogonalEdgeStyle;rounded=0;orthogonalLoop=1;jettySize=auto;html=1;" edge="1" parent="1" source="gQu-EgqjIdYCseF4d5mw-1" target="gQu-EgqjIdYCseF4d5mw-6">
          <mxGeometry relative="1" as="geometry" />
        </mxCell>
        <mxCell id="gQu-EgqjIdYCseF4d5mw-8" style="edgeStyle=orthogonalEdgeStyle;rounded=0;orthogonalLoop=1;jettySize=auto;html=1;entryX=0;entryY=0.5;entryDx=0;entryDy=0;" edge="1" parent="1" source="gQu-EgqjIdYCseF4d5mw-1" target="gQu-EgqjIdYCseF4d5mw-2">
          <mxGeometry relative="1" as="geometry" />
        </mxCell>
        <mxCell id="gQu-EgqjIdYCseF4d5mw-10" style="edgeStyle=orthogonalEdgeStyle;rounded=0;orthogonalLoop=1;jettySize=auto;html=1;exitX=1;exitY=0.5;exitDx=0;exitDy=0;entryX=0;entryY=0.5;entryDx=0;entryDy=0;" edge="1" parent="1" source="gQu-EgqjIdYCseF4d5mw-1" target="eDSKi7YM4I0om17HCzt9-1">
          <mxGeometry relative="1" as="geometry">
            <mxPoint x="490" y="-175" as="targetPoint" />
          </mxGeometry>
        </mxCell>
        <mxCell id="gQu-EgqjIdYCseF4d5mw-1" value="ekiga_main" style="html=1;whiteSpace=wrap;" vertex="1" parent="1">
          <mxGeometry x="110" y="-300" width="140" height="50" as="geometry" />
        </mxCell>
        <UserObject label="engine_init" link="data:page/id,sQ9oNI7Usirow8br0qx9" id="eDSKi7YM4I0om17HCzt9-1">
          <mxCell style="fontColor=#0000EE;fontStyle=4;rounded=1;overflow=hidden;spacing=10;" vertex="1" parent="1">
            <mxGeometry x="490" y="-195" width="120" height="50" as="geometry" />
          </mxCell>
        </UserObject>
        <mxCell id="gQu-EgqjIdYCseF4d5mw-2" value="gm_application_new" style="html=1;whiteSpace=wrap;" vertex="1" parent="1">
          <mxGeometry x="490" y="-400" width="110" height="50" as="geometry" />
        </mxCell>
        <mxCell id="gQu-EgqjIdYCseF4d5mw-6" value="C9_VcapVenc_init" style="html=1;whiteSpace=wrap;" vertex="1" parent="1">
          <mxGeometry x="490" y="-300" width="110" height="50" as="geometry" />
        </mxCell>
        <mxCell id="ijWDm0RKz5ggMyt9_muB-1" value="&lt;div&gt;theora_plugin.h&lt;br&gt;&lt;/div&gt;&lt;div&gt;static PluginCodec_ControlDefn EncoderControls[] = {&lt;/div&gt;&lt;div&gt;&amp;nbsp; { PLUGINCODEC_CONTROL_VALID_FOR_PROTOCOL,&amp;nbsp; &amp;nbsp; valid_for_protocol },&lt;/div&gt;&lt;div&gt;&amp;nbsp; { PLUGINCODEC_CONTROL_GET_CODEC_OPTIONS,&amp;nbsp; &amp;nbsp; &amp;nbsp;get_codec_options },&lt;/div&gt;&lt;div&gt;&amp;nbsp; { PLUGINCODEC_CONTROL_FREE_CODEC_OPTIONS,&amp;nbsp; &amp;nbsp; free_codec_options },&lt;/div&gt;&lt;div&gt;&amp;nbsp; { PLUGINCODEC_CONTROL_TO_NORMALISED_OPTIONS, to_normalised_options },&lt;/div&gt;&lt;div&gt;&amp;nbsp; { PLUGINCODEC_CONTROL_TO_CUSTOMISED_OPTIONS, to_customised_options },&lt;/div&gt;&lt;div&gt;&amp;nbsp; { PLUGINCODEC_CONTROL_SET_CODEC_OPTIONS,&amp;nbsp; &amp;nbsp; &amp;nbsp;encoder_set_options },&lt;/div&gt;&lt;div&gt;&amp;nbsp; { PLUGINCODEC_CONTROL_GET_OUTPUT_DATA_SIZE,&amp;nbsp; encoder_get_output_data_size },&lt;/div&gt;&lt;div&gt;&amp;nbsp; PLUGINCODEC_CONTROL_LOG_FUNCTION_INC&lt;span style=&quot;background-color: initial;&quot;&gt;};&lt;/span&gt;&lt;/div&gt;" style="rounded=0;whiteSpace=wrap;html=1;" vertex="1" parent="1">
          <mxGeometry x="1175" y="-390" width="530" height="160" as="geometry" />
        </mxCell>
        <mxCell id="ijWDm0RKz5ggMyt9_muB-2" value="&lt;div&gt;static PluginCodec_ControlDefn DecoderControls[] = {&lt;/div&gt;&lt;div&gt;&amp;nbsp; { PLUGINCODEC_CONTROL_GET_CODEC_OPTIONS,&amp;nbsp; &amp;nbsp; &amp;nbsp;get_codec_options },&lt;/div&gt;&lt;div&gt;&amp;nbsp; { PLUGINCODEC_CONTROL_GET_OUTPUT_DATA_SIZE,&amp;nbsp; decoder_get_output_data_size },&lt;span style=&quot;background-color: initial;&quot;&gt;};&lt;/span&gt;&lt;/div&gt;" style="rounded=0;whiteSpace=wrap;html=1;" vertex="1" parent="1">
          <mxGeometry x="1170" y="-180" width="520" height="60" as="geometry" />
        </mxCell>
        <mxCell id="ijWDm0RKz5ggMyt9_muB-3" value="264HP profile 100&lt;br&gt;baseline 66&lt;br&gt;main 77&lt;br&gt;extend 88" style="rounded=0;whiteSpace=wrap;html=1;" vertex="1" parent="1">
          <mxGeometry x="680" y="-80" width="120" height="60" as="geometry" />
        </mxCell>
        <mxCell id="ijWDm0RKz5ggMyt9_muB-4" value="c9_videoconference_phydevagencycpp" style="shape=note;whiteSpace=wrap;html=1;size=14;verticalAlign=top;align=left;spacingTop=-6;rounded=0;shadow=0;comic=0;labelBackgroundColor=none;strokeWidth=1;fontFamily=Verdana;fontSize=12" vertex="1" parent="1">
          <mxGeometry x="1270" y="30" width="100" height="35" as="geometry" />
        </mxCell>
        <mxCell id="ijWDm0RKz5ggMyt9_muB-5" value="phydev_Venc_setDynamicParam" style="shape=umlLifeline;perimeter=lifelinePerimeter;whiteSpace=wrap;html=1;container=1;collapsible=0;recursiveResize=0;outlineConnect=0;rounded=1;shadow=0;comic=0;labelBackgroundColor=none;strokeWidth=1;fontFamily=Verdana;fontSize=12;align=center;" vertex="1" parent="1">
          <mxGeometry x="1228" y="80" width="272" height="580" as="geometry" />
        </mxCell>
        <mxCell id="ijWDm0RKz5ggMyt9_muB-17" value="" style="html=1;points=[];perimeter=orthogonalPerimeter;outlineConnect=0;targetShapes=umlLifeline;portConstraint=eastwest;newEdgeStyle={&quot;edgeStyle&quot;:&quot;elbowEdgeStyle&quot;,&quot;elbow&quot;:&quot;vertical&quot;,&quot;curved&quot;:0,&quot;rounded&quot;:0};" vertex="1" parent="ijWDm0RKz5ggMyt9_muB-5">
          <mxGeometry x="132" y="240" width="10" height="270" as="geometry" />
        </mxCell>
        <mxCell id="ijWDm0RKz5ggMyt9_muB-41" value="VENC_BITRATE速率" style="text;html=1;strokeColor=none;fillColor=none;align=center;verticalAlign=middle;whiteSpace=wrap;rounded=0;" vertex="1" parent="ijWDm0RKz5ggMyt9_muB-5">
          <mxGeometry x="80" y="245" width="130" height="30" as="geometry" />
        </mxCell>
        <mxCell id="ijWDm0RKz5ggMyt9_muB-42" value="VENC_FRAMERATE帧率" style="text;html=1;strokeColor=none;fillColor=none;align=center;verticalAlign=middle;whiteSpace=wrap;rounded=0;" vertex="1" parent="ijWDm0RKz5ggMyt9_muB-5">
          <mxGeometry x="75" y="275" width="140" height="30" as="geometry" />
        </mxCell>
        <mxCell id="ijWDm0RKz5ggMyt9_muB-43" value="VENC_QPVAL_I&amp;nbsp;VENC_QPVAL_P" style="text;html=1;strokeColor=none;fillColor=none;align=center;verticalAlign=middle;whiteSpace=wrap;rounded=0;" vertex="1" parent="ijWDm0RKz5ggMyt9_muB-5">
          <mxGeometry x="115" y="305" width="60" height="30" as="geometry" />
        </mxCell>
        <mxCell id="ijWDm0RKz5ggMyt9_muB-44" value="VENC_IPRATIO I帧间隔" style="text;html=1;strokeColor=none;fillColor=none;align=center;verticalAlign=middle;whiteSpace=wrap;rounded=0;" vertex="1" parent="ijWDm0RKz5ggMyt9_muB-5">
          <mxGeometry x="63" y="335" width="150" height="30" as="geometry" />
        </mxCell>
        <mxCell id="ijWDm0RKz5ggMyt9_muB-45" value="VENC_H241使能" style="text;html=1;strokeColor=none;fillColor=none;align=center;verticalAlign=middle;whiteSpace=wrap;rounded=0;" vertex="1" parent="ijWDm0RKz5ggMyt9_muB-5">
          <mxGeometry x="65" y="365" width="150" height="30" as="geometry" />
        </mxCell>
        <mxCell id="ijWDm0RKz5ggMyt9_muB-46" value="VENC_RCALG速率控制" style="text;html=1;strokeColor=none;fillColor=none;align=center;verticalAlign=middle;whiteSpace=wrap;rounded=0;" vertex="1" parent="ijWDm0RKz5ggMyt9_muB-5">
          <mxGeometry x="70" y="395" width="150" height="30" as="geometry" />
        </mxCell>
        <mxCell id="ijWDm0RKz5ggMyt9_muB-61" value="" style="endArrow=classic;html=1;rounded=0;" edge="1" parent="ijWDm0RKz5ggMyt9_muB-5">
          <mxGeometry width="50" height="50" relative="1" as="geometry">
            <mxPoint x="139" y="430" as="sourcePoint" />
            <mxPoint x="373.5" y="430" as="targetPoint" />
          </mxGeometry>
        </mxCell>
        <mxCell id="ijWDm0RKz5ggMyt9_muB-35" value="dispatch" style="html=1;verticalAlign=bottom;endArrow=block;edgeStyle=elbowEdgeStyle;elbow=vertical;curved=0;rounded=0;" edge="1" parent="1" target="ijWDm0RKz5ggMyt9_muB-17">
          <mxGeometry x="-0.0026" relative="1" as="geometry">
            <mxPoint x="1130" y="320" as="sourcePoint" />
            <mxPoint x="1320.5" y="320" as="targetPoint" />
            <mxPoint as="offset" />
          </mxGeometry>
        </mxCell>
        <mxCell id="ijWDm0RKz5ggMyt9_muB-47" value="rpc_video.cpp" style="shape=note;whiteSpace=wrap;html=1;size=14;verticalAlign=top;align=left;spacingTop=-6;rounded=0;shadow=0;comic=0;labelBackgroundColor=none;strokeWidth=1;fontFamily=Verdana;fontSize=12" vertex="1" parent="1">
          <mxGeometry x="1562" y="30" width="100" height="35" as="geometry" />
        </mxCell>
        <mxCell id="ijWDm0RKz5ggMyt9_muB-48" value="RpcSendMsg" style="shape=umlLifeline;perimeter=lifelinePerimeter;whiteSpace=wrap;html=1;container=1;collapsible=0;recursiveResize=0;outlineConnect=0;rounded=1;shadow=0;comic=0;labelBackgroundColor=none;strokeWidth=1;fontFamily=Verdana;fontSize=12;align=center;" vertex="1" parent="1">
          <mxGeometry x="1520" y="80" width="170" height="580" as="geometry" />
        </mxCell>
        <mxCell id="ijWDm0RKz5ggMyt9_muB-60" value="" style="html=1;points=[];perimeter=orthogonalPerimeter;outlineConnect=0;targetShapes=umlLifeline;portConstraint=eastwest;newEdgeStyle={&quot;edgeStyle&quot;:&quot;elbowEdgeStyle&quot;,&quot;elbow&quot;:&quot;vertical&quot;,&quot;curved&quot;:0,&quot;rounded&quot;:0};" vertex="1" parent="ijWDm0RKz5ggMyt9_muB-48">
          <mxGeometry x="80" y="400" width="10" height="80" as="geometry" />
        </mxCell>
      </root>
    </mxGraphModel>
  </diagram>
  <diagram id="sQ9oNI7Usirow8br0qx9" name="engine_init">
    <mxGraphModel dx="1372" dy="1973" grid="1" gridSize="10" guides="1" tooltips="1" connect="1" arrows="1" fold="1" page="1" pageScale="1" pageWidth="827" pageHeight="1169" math="0" shadow="0">
      <root>
        <mxCell id="0" />
        <mxCell id="1" parent="0" />
        <mxCell id="-shQEy_NEgaJKzDIcHlw-10" style="edgeStyle=orthogonalEdgeStyle;rounded=0;orthogonalLoop=1;jettySize=auto;html=1;" edge="1" parent="1" source="wrvQ9h7CXD9r9QgLEHSX-1" target="-shQEy_NEgaJKzDIcHlw-1">
          <mxGeometry relative="1" as="geometry" />
        </mxCell>
        <mxCell id="-shQEy_NEgaJKzDIcHlw-11" style="edgeStyle=orthogonalEdgeStyle;rounded=0;orthogonalLoop=1;jettySize=auto;html=1;entryX=0;entryY=0.5;entryDx=0;entryDy=0;" edge="1" parent="1" source="wrvQ9h7CXD9r9QgLEHSX-1" target="-shQEy_NEgaJKzDIcHlw-3">
          <mxGeometry relative="1" as="geometry" />
        </mxCell>
        <mxCell id="-shQEy_NEgaJKzDIcHlw-12" style="edgeStyle=orthogonalEdgeStyle;rounded=0;orthogonalLoop=1;jettySize=auto;html=1;entryX=0;entryY=0.5;entryDx=0;entryDy=0;" edge="1" parent="1" source="wrvQ9h7CXD9r9QgLEHSX-1" target="benARrttGZBLRWTV01FH-1">
          <mxGeometry relative="1" as="geometry">
            <mxPoint x="490" y="245" as="targetPoint" />
          </mxGeometry>
        </mxCell>
        <mxCell id="-shQEy_NEgaJKzDIcHlw-13" style="edgeStyle=orthogonalEdgeStyle;rounded=0;orthogonalLoop=1;jettySize=auto;html=1;entryX=0;entryY=0.5;entryDx=0;entryDy=0;" edge="1" parent="1" source="wrvQ9h7CXD9r9QgLEHSX-1" target="-shQEy_NEgaJKzDIcHlw-6">
          <mxGeometry relative="1" as="geometry" />
        </mxCell>
        <mxCell id="-shQEy_NEgaJKzDIcHlw-14" style="edgeStyle=orthogonalEdgeStyle;rounded=0;orthogonalLoop=1;jettySize=auto;html=1;entryX=0;entryY=0.5;entryDx=0;entryDy=0;" edge="1" parent="1" source="wrvQ9h7CXD9r9QgLEHSX-1">
          <mxGeometry relative="1" as="geometry">
            <mxPoint x="490" y="455" as="targetPoint" />
            <Array as="points">
              <mxPoint x="370" y="100" />
              <mxPoint x="370" y="455" />
            </Array>
          </mxGeometry>
        </mxCell>
        <mxCell id="-shQEy_NEgaJKzDIcHlw-15" style="edgeStyle=orthogonalEdgeStyle;rounded=0;orthogonalLoop=1;jettySize=auto;html=1;entryX=0;entryY=0.5;entryDx=0;entryDy=0;" edge="1" parent="1" source="wrvQ9h7CXD9r9QgLEHSX-1" target="-shQEy_NEgaJKzDIcHlw-8">
          <mxGeometry relative="1" as="geometry" />
        </mxCell>
        <mxCell id="-shQEy_NEgaJKzDIcHlw-16" style="edgeStyle=orthogonalEdgeStyle;rounded=0;orthogonalLoop=1;jettySize=auto;html=1;entryX=0;entryY=0.5;entryDx=0;entryDy=0;" edge="1" parent="1" source="wrvQ9h7CXD9r9QgLEHSX-1" target="-shQEy_NEgaJKzDIcHlw-9">
          <mxGeometry relative="1" as="geometry" />
        </mxCell>
        <mxCell id="wrvQ9h7CXD9r9QgLEHSX-1" value="engine_init" style="rounded=0;whiteSpace=wrap;html=1;" vertex="1" parent="1">
          <mxGeometry x="130" y="70" width="120" height="60" as="geometry" />
        </mxCell>
        <mxCell id="-shQEy_NEgaJKzDIcHlw-1" value="&lt;p style=&quot;margin:0px;margin-top:6px;text-align:center;&quot;&gt;&lt;b&gt;engine_init&lt;/b&gt;&lt;br&gt;&lt;/p&gt;&lt;hr&gt;&lt;div style=&quot;border-color: var(--border-color); text-align: center;&quot;&gt;&amp;nbsp; core.add (contact_core);&lt;/div&gt;&lt;div style=&quot;border-color: var(--border-color); text-align: center;&quot;&gt;&amp;nbsp; core.add (chat_core);&lt;/div&gt;&lt;div style=&quot;border-color: var(--border-color); text-align: center;&quot;&gt;&amp;nbsp; core.add (friend_or_foe);&lt;/div&gt;&lt;div style=&quot;border-color: var(--border-color); text-align: center;&quot;&gt;&amp;nbsp; core.add (foe_list);&lt;/div&gt;&lt;div style=&quot;border-color: var(--border-color); text-align: center;&quot;&gt;&amp;nbsp; core.add (videoinput_core);&lt;/div&gt;&lt;div style=&quot;border-color: var(--border-color); text-align: center;&quot;&gt;&amp;nbsp; core.add (videooutput_core);&lt;/div&gt;&lt;div style=&quot;border-color: var(--border-color); text-align: center;&quot;&gt;&amp;nbsp; core.add (audioinput_core);&lt;/div&gt;&lt;div style=&quot;border-color: var(--border-color); text-align: center;&quot;&gt;&amp;nbsp; core.add (audiooutput_core);&lt;/div&gt;&lt;div style=&quot;border-color: var(--border-color); text-align: center;&quot;&gt;&amp;nbsp; core.add (hal_core);&lt;/div&gt;&lt;div style=&quot;border-color: var(--border-color); text-align: center;&quot;&gt;&amp;nbsp; core.add (call_core);&lt;/div&gt;&lt;div style=&quot;border-color: var(--border-color); text-align: center;&quot;&gt;&amp;nbsp; core.add (account_core);&lt;/div&gt;&lt;div style=&quot;border-color: var(--border-color); text-align: center;&quot;&gt;&amp;nbsp; core.add (details);&lt;/div&gt;&lt;div style=&quot;border-color: var(--border-color); text-align: center;&quot;&gt;&amp;nbsp; core.add (presence_core);&lt;/div&gt;" style="align=left;overflow=fill;html=1;dropTarget=0;whiteSpace=wrap;" vertex="1" parent="1">
          <mxGeometry x="490" y="-90" width="180" height="230" as="geometry" />
        </mxCell>
        <mxCell id="-shQEy_NEgaJKzDIcHlw-2" value="" style="shape=component;jettyWidth=8;jettyHeight=4;" vertex="1" parent="-shQEy_NEgaJKzDIcHlw-1">
          <mxGeometry x="1" width="20" height="20" relative="1" as="geometry">
            <mxPoint x="-24" y="4" as="offset" />
          </mxGeometry>
        </mxCell>
        <mxCell id="-shQEy_NEgaJKzDIcHlw-3" value="instance.Start (core)" style="html=1;whiteSpace=wrap;" vertex="1" parent="1">
          <mxGeometry x="490" y="160" width="160" height="50" as="geometry" />
        </mxCell>
        <mxCell id="-shQEy_NEgaJKzDIcHlw-5" value="&lt;div&gt;&amp;nbsp; history_init (kickstart);&lt;/div&gt;&lt;div&gt;&lt;br&gt;&lt;/div&gt;&lt;div&gt;&amp;nbsp; simple_book_init (kickstart);&lt;/div&gt;" style="html=1;whiteSpace=wrap;" vertex="1" parent="1">
          <mxGeometry x="490" y="280" width="160" height="50" as="geometry" />
        </mxCell>
        <mxCell id="DX3ZMVNvGL7kJhDEna9R-2" value="" style="edgeStyle=orthogonalEdgeStyle;rounded=0;orthogonalLoop=1;jettySize=auto;html=1;" edge="1" parent="1" source="-shQEy_NEgaJKzDIcHlw-6" target="DX3ZMVNvGL7kJhDEna9R-1">
          <mxGeometry relative="1" as="geometry" />
        </mxCell>
        <mxCell id="-shQEy_NEgaJKzDIcHlw-6" value="plugin_init" style="html=1;whiteSpace=wrap;" vertex="1" parent="1">
          <mxGeometry x="490" y="350" width="160" height="50" as="geometry" />
        </mxCell>
        <mxCell id="-shQEy_NEgaJKzDIcHlw-8" value="&lt;div&gt;&amp;nbsp; videoinput_core-&amp;gt;setup (&quot;any&quot;);&lt;/div&gt;&lt;div&gt;&amp;nbsp; audioinput_core-&amp;gt;setup ();&lt;/div&gt;&lt;div&gt;&amp;nbsp; audiooutput_core-&amp;gt;setup ();&lt;/div&gt;" style="html=1;whiteSpace=wrap;" vertex="1" parent="1">
          <mxGeometry x="490" y="520" width="200" height="65" as="geometry" />
        </mxCell>
        <mxCell id="-shQEy_NEgaJKzDIcHlw-9" value="&lt;div&gt;&amp;nbsp; hal_core-&amp;gt;videoinput_device_added.connect (boost::bind (&amp;amp;Ekiga::VideoInputCore::add_device, boost::ref (*videoinput_core), _1, _2, _3, _4));&lt;/div&gt;&lt;div&gt;&amp;nbsp; hal_core-&amp;gt;videoinput_device_removed.connect (boost::bind (&amp;amp;Ekiga::VideoInputCore::remove_device, boost::ref (*videoinput_core), _1, _2, _3, _4));&lt;/div&gt;&lt;div&gt;&amp;nbsp; hal_core-&amp;gt;audiooutput_device_added.connect (boost::bind (&amp;amp;Ekiga::AudioOutputCore::add_device, boost::ref (*audiooutput_core), _1, _2, _3));&lt;/div&gt;&lt;div&gt;&amp;nbsp; hal_core-&amp;gt;audiooutput_device_removed.connect (boost::bind (&amp;amp;Ekiga::AudioOutputCore::remove_device, boost::ref (*audiooutput_core), _1, _2, _3));&lt;/div&gt;&lt;div&gt;&amp;nbsp; hal_core-&amp;gt;audioinput_device_added.connect (boost::bind (&amp;amp;Ekiga::AudioInputCore::add_device, boost::ref (*audioinput_core), _1, _2, _3));&lt;/div&gt;&lt;div&gt;&amp;nbsp; hal_core-&amp;gt;audioinput_device_removed.connect (boost::bind (&amp;amp;Ekiga::AudioInputCore::remove_device, boost::ref (*audioinput_core), _1, _2, _3));&lt;/div&gt;" style="html=1;whiteSpace=wrap;" vertex="1" parent="1">
          <mxGeometry x="490" y="600" width="830" height="100" as="geometry" />
        </mxCell>
        <UserObject label="opal_init" link="data:page/id,5fzAPs4kgJY6VKO34eEA" id="benARrttGZBLRWTV01FH-1">
          <mxCell style="fontColor=#0000EE;fontStyle=4;rounded=1;overflow=hidden;spacing=10;" vertex="1" parent="1">
            <mxGeometry x="490" y="220" width="160" height="50" as="geometry" />
          </mxCell>
        </UserObject>
        <mxCell id="DX3ZMVNvGL7kJhDEna9R-1" value="&lt;div&gt;gchar* path = g_build_path (G_DIR_SEPARATOR_S,&lt;/div&gt;&lt;div&gt;			&amp;nbsp; &amp;nbsp; &amp;nbsp; g_get_tmp_dir (), &quot;ekiga_debug_plugins&quot;, NULL);&lt;/div&gt;&lt;div&gt;&amp;nbsp; plugin_parse_directory (kickstart, path);&lt;/div&gt;" style="whiteSpace=wrap;html=1;" vertex="1" parent="1">
          <mxGeometry x="750" y="345" width="330" height="60" as="geometry" />
        </mxCell>
        <mxCell id="BS53INScO5NR60O39b1r-4" value="" style="edgeStyle=orthogonalEdgeStyle;rounded=0;orthogonalLoop=1;jettySize=auto;html=1;" edge="1" parent="1" source="meCUNKsJ4FAuixqdQ-y6-1">
          <mxGeometry relative="1" as="geometry">
            <mxPoint x="750" y="457.5" as="targetPoint" />
          </mxGeometry>
        </mxCell>
        <UserObject label="c9_plugin_init" link="data:page/id,nIkm5QkR0DiJscG3uBfI" id="meCUNKsJ4FAuixqdQ-y6-1">
          <mxCell style="fontColor=#0000EE;fontStyle=4;rounded=1;overflow=hidden;spacing=10;" vertex="1" parent="1">
            <mxGeometry x="490" y="430" width="160" height="55" as="geometry" />
          </mxCell>
        </UserObject>
        <mxCell id="BS53INScO5NR60O39b1r-5" value="C9音视频初始化" style="rounded=0;whiteSpace=wrap;html=1;" vertex="1" parent="1">
          <mxGeometry x="750" y="425" width="120" height="60" as="geometry" />
        </mxCell>
      </root>
    </mxGraphModel>
  </diagram>
  <diagram id="5fzAPs4kgJY6VKO34eEA" name="opal_init">
    <mxGraphModel dx="1372" dy="804" grid="1" gridSize="10" guides="1" tooltips="1" connect="1" arrows="1" fold="1" page="1" pageScale="1" pageWidth="827" pageHeight="1169" math="0" shadow="0">
      <root>
        <mxCell id="0" />
        <mxCell id="1" parent="0" />
        <mxCell id="QhF6gsfP-G7483KTyrlo-4" value="" style="edgeStyle=orthogonalEdgeStyle;rounded=0;orthogonalLoop=1;jettySize=auto;html=1;" edge="1" parent="1" source="QhF6gsfP-G7483KTyrlo-1" target="QhF6gsfP-G7483KTyrlo-3">
          <mxGeometry relative="1" as="geometry" />
        </mxCell>
        <mxCell id="QhF6gsfP-G7483KTyrlo-9" style="edgeStyle=orthogonalEdgeStyle;rounded=0;orthogonalLoop=1;jettySize=auto;html=1;entryX=0;entryY=0.5;entryDx=0;entryDy=0;" edge="1" parent="1" source="QhF6gsfP-G7483KTyrlo-1" target="QhF6gsfP-G7483KTyrlo-8">
          <mxGeometry relative="1" as="geometry" />
        </mxCell>
        <mxCell id="QhF6gsfP-G7483KTyrlo-10" style="edgeStyle=orthogonalEdgeStyle;rounded=0;orthogonalLoop=1;jettySize=auto;html=1;entryX=0;entryY=0.5;entryDx=0;entryDy=0;" edge="1" parent="1" source="QhF6gsfP-G7483KTyrlo-1" target="QhF6gsfP-G7483KTyrlo-7">
          <mxGeometry relative="1" as="geometry" />
        </mxCell>
        <mxCell id="QhF6gsfP-G7483KTyrlo-11" style="edgeStyle=orthogonalEdgeStyle;rounded=0;orthogonalLoop=1;jettySize=auto;html=1;entryX=0;entryY=0.5;entryDx=0;entryDy=0;" edge="1" parent="1" source="QhF6gsfP-G7483KTyrlo-1" target="QhF6gsfP-G7483KTyrlo-5">
          <mxGeometry relative="1" as="geometry" />
        </mxCell>
        <mxCell id="QhF6gsfP-G7483KTyrlo-1" value="ekiga/lib/engine/framework/kickstart.cpp&lt;br&gt;Ekiga::KickStart::kick&lt;br&gt;try_initialize_more" style="rounded=0;whiteSpace=wrap;html=1;" vertex="1" parent="1">
          <mxGeometry x="84" y="250" width="270" height="60" as="geometry" />
        </mxCell>
        <mxCell id="QhF6gsfP-G7483KTyrlo-2" value="&lt;div&gt;&amp;nbsp; boost::shared_ptr&amp;lt;Ekiga::Spark&amp;gt; spark (new OPALSpark);&lt;/div&gt;&lt;div&gt;&amp;nbsp; kickstart.add_spark (spark);&lt;/div&gt;" style="whiteSpace=wrap;html=1;" vertex="1" parent="1">
          <mxGeometry x="84" y="160" width="330" height="60" as="geometry" />
        </mxCell>
        <mxCell id="QhF6gsfP-G7483KTyrlo-3" value="&lt;div&gt;&amp;nbsp; &amp;nbsp; boost::shared_ptr&amp;lt;Ekiga::ContactCore&amp;gt; contact_core = core.get&amp;lt;Ekiga::ContactCore&amp;gt; (&quot;contact-core&quot;);&lt;/div&gt;&lt;div&gt;&amp;nbsp; &amp;nbsp; boost::shared_ptr&amp;lt;Ekiga::PresenceCore&amp;gt; presence_core = core.get&amp;lt;Ekiga::PresenceCore&amp;gt; (&quot;presence-core&quot;);&lt;/div&gt;&lt;div&gt;&amp;nbsp; &amp;nbsp; boost::shared_ptr&amp;lt;Ekiga::CallCore&amp;gt; call_core = core.get&amp;lt;Ekiga::CallCore&amp;gt; (&quot;call-core&quot;);&lt;/div&gt;&lt;div&gt;&amp;nbsp; &amp;nbsp; boost::shared_ptr&amp;lt;Ekiga::ChatCore&amp;gt; chat_core = core.get&amp;lt;Ekiga::ChatCore&amp;gt; (&quot;chat-core&quot;);&lt;/div&gt;&lt;div&gt;&amp;nbsp; &amp;nbsp; boost::shared_ptr&amp;lt;Ekiga::AccountCore&amp;gt; account_core = core.get&amp;lt;Ekiga::AccountCore&amp;gt; (&quot;account-core&quot;);&lt;/div&gt;&lt;div&gt;&amp;nbsp; &amp;nbsp; boost::shared_ptr&amp;lt;Ekiga::AudioInputCore&amp;gt; audioinput_core = core.get&amp;lt;Ekiga::AudioInputCore&amp;gt; (&quot;audioinput-core&quot;);&lt;/div&gt;&lt;div&gt;&amp;nbsp; &amp;nbsp; boost::shared_ptr&amp;lt;Ekiga::VideoInputCore&amp;gt; videoinput_core = core.get&amp;lt;Ekiga::VideoInputCore&amp;gt; (&quot;videoinput-core&quot;);&lt;/div&gt;&lt;div&gt;&amp;nbsp; &amp;nbsp; boost::shared_ptr&amp;lt;Ekiga::AudioOutputCore&amp;gt; audiooutput_core = core.get&amp;lt;Ekiga::AudioOutputCore&amp;gt; (&quot;audiooutput-core&quot;);&lt;/div&gt;&lt;div&gt;&amp;nbsp; &amp;nbsp; boost::shared_ptr&amp;lt;Ekiga::VideoOutputCore&amp;gt; videooutput_core = core.get&amp;lt;Ekiga::VideoOutputCore&amp;gt; (&quot;videooutput-core&quot;);&lt;/div&gt;&lt;div&gt;&amp;nbsp; &amp;nbsp; boost::shared_ptr&amp;lt;Ekiga::PersonalDetails&amp;gt; personal_details = core.get&amp;lt;Ekiga::PersonalDetails&amp;gt; (&quot;personal-details&quot;);&lt;/div&gt;&lt;div&gt;&amp;nbsp; &amp;nbsp; boost::shared_ptr&amp;lt;Bank&amp;gt; account_store = core.get&amp;lt;Bank&amp;gt; (&quot;opal-account-store&quot;);&lt;/div&gt;" style="whiteSpace=wrap;html=1;rounded=0;" vertex="1" parent="1">
          <mxGeometry x="509" y="200" width="721" height="160" as="geometry" />
        </mxCell>
        <mxCell id="QhF6gsfP-G7483KTyrlo-5" value="boost::shared_ptr&amp;lt;Opal::Sip::CallManager&amp;gt; sip_call_manager (new Opal::Sip::CallManager (core, endpoint, sip_endpoint))&lt;br&gt;call_core-&amp;gt;add_manager (sip_call_manager)" style="whiteSpace=wrap;html=1;rounded=0;" vertex="1" parent="1">
          <mxGeometry x="510" y="497" width="690" height="60" as="geometry" />
        </mxCell>
        <mxCell id="QhF6gsfP-G7483KTyrlo-7" value="boost::shared_ptr&amp;lt;Opal::H323::CallManager&amp;gt; h323_call_manager (new Opal::H323::CallManager (core, endpoint, h323_endpoint))&lt;br&gt;call_core-&amp;gt;add_manager (h323_call_manager)" style="whiteSpace=wrap;html=1;rounded=0;" vertex="1" parent="1">
          <mxGeometry x="509" y="592" width="721" height="60" as="geometry" />
        </mxCell>
        <mxCell id="QhF6gsfP-G7483KTyrlo-8" value="Opal::EndPoint&amp;amp; endpoint = GnomeMeeting::Process ()-&amp;gt;GetEndPoint ()&lt;br&gt;Opal::Sip::EndPoint&amp;amp; sip_endpoint = endpoint.GetSipEndPoint ()&lt;br&gt;Opal::H323::EndPoint&amp;amp; h323_endpoint = endpoint.GetH323EndPoint ()" style="whiteSpace=wrap;html=1;rounded=0;" vertex="1" parent="1">
          <mxGeometry x="509" y="395" width="721" height="60" as="geometry" />
        </mxCell>
      </root>
    </mxGraphModel>
  </diagram>
  <diagram id="nIkm5QkR0DiJscG3uBfI" name="c9_plugin_init">
    <mxGraphModel dx="2441" dy="946" grid="1" gridSize="10" guides="1" tooltips="1" connect="1" arrows="1" fold="1" page="1" pageScale="1" pageWidth="827" pageHeight="1169" math="0" shadow="0">
      <root>
        <mxCell id="0" />
        <mxCell id="1" parent="0" />
        <mxCell id="hiJ7gESslxtPcER5zRw0-8" style="edgeStyle=orthogonalEdgeStyle;rounded=0;orthogonalLoop=1;jettySize=auto;html=1;entryX=0;entryY=0.5;entryDx=0;entryDy=0;" edge="1" parent="1" source="hiJ7gESslxtPcER5zRw0-1" target="hiJ7gESslxtPcER5zRw0-5">
          <mxGeometry relative="1" as="geometry" />
        </mxCell>
        <mxCell id="hiJ7gESslxtPcER5zRw0-9" style="edgeStyle=orthogonalEdgeStyle;rounded=0;orthogonalLoop=1;jettySize=auto;html=1;entryX=0;entryY=0.5;entryDx=0;entryDy=0;" edge="1" parent="1" source="hiJ7gESslxtPcER5zRw0-1" target="hiJ7gESslxtPcER5zRw0-6">
          <mxGeometry relative="1" as="geometry" />
        </mxCell>
        <mxCell id="hiJ7gESslxtPcER5zRw0-10" style="edgeStyle=orthogonalEdgeStyle;rounded=0;orthogonalLoop=1;jettySize=auto;html=1;entryX=0;entryY=0.5;entryDx=0;entryDy=0;" edge="1" parent="1" source="hiJ7gESslxtPcER5zRw0-1" target="hiJ7gESslxtPcER5zRw0-7">
          <mxGeometry relative="1" as="geometry" />
        </mxCell>
        <mxCell id="hiJ7gESslxtPcER5zRw0-11" style="edgeStyle=orthogonalEdgeStyle;rounded=0;orthogonalLoop=1;jettySize=auto;html=1;entryX=0;entryY=0.5;entryDx=0;entryDy=0;" edge="1" parent="1" source="hiJ7gESslxtPcER5zRw0-1" target="hiJ7gESslxtPcER5zRw0-2">
          <mxGeometry relative="1" as="geometry" />
        </mxCell>
        <mxCell id="hiJ7gESslxtPcER5zRw0-1" value="&lt;div&gt;&amp;nbsp; audioinput_c9_init(kickstart);&lt;/div&gt;&lt;div&gt;&amp;nbsp; audiooutput_c9_init(kickstart);&lt;/div&gt;&lt;div&gt;&amp;nbsp; videoinput_c9_init(kickstart);&lt;/div&gt;&lt;div&gt;&amp;nbsp; videooutput_c9_init(kickstart);&lt;/div&gt;" style="rounded=0;whiteSpace=wrap;html=1;" vertex="1" parent="1">
          <mxGeometry x="-650" y="280" width="190" height="60" as="geometry" />
        </mxCell>
        <mxCell id="hiJ7gESslxtPcER5zRw0-2" value="audioinput_c9_init" style="whiteSpace=wrap;html=1;rounded=0;" vertex="1" parent="1">
          <mxGeometry x="-335" y="130" width="120" height="60" as="geometry" />
        </mxCell>
        <mxCell id="hiJ7gESslxtPcER5zRw0-5" value="audiooutput_c9_init" style="whiteSpace=wrap;html=1;rounded=0;" vertex="1" parent="1">
          <mxGeometry x="-335" y="220" width="120" height="60" as="geometry" />
        </mxCell>
        <mxCell id="hiJ7gESslxtPcER5zRw0-6" value="videoinput_c9_init" style="whiteSpace=wrap;html=1;rounded=0;" vertex="1" parent="1">
          <mxGeometry x="-335" y="310" width="120" height="60" as="geometry" />
        </mxCell>
        <mxCell id="hiJ7gESslxtPcER5zRw0-7" value="videooutput_c9_init" style="whiteSpace=wrap;html=1;rounded=0;" vertex="1" parent="1">
          <mxGeometry x="-335" y="400" width="120" height="60" as="geometry" />
        </mxCell>
        <mxCell id="Vv6Zkrfm-g0jwWEZShg1-1" value="OpalPluginMediaFormatInternal::PopulateOptions" style="rounded=0;whiteSpace=wrap;html=1;" vertex="1" parent="1">
          <mxGeometry x="-180" y="635" width="280" height="60" as="geometry" />
        </mxCell>
        <mxCell id="Vv6Zkrfm-g0jwWEZShg1-4" style="edgeStyle=orthogonalEdgeStyle;rounded=0;orthogonalLoop=1;jettySize=auto;html=1;entryX=0;entryY=0.5;entryDx=0;entryDy=0;" edge="1" parent="1" source="Vv6Zkrfm-g0jwWEZShg1-2" target="Vv6Zkrfm-g0jwWEZShg1-1">
          <mxGeometry relative="1" as="geometry" />
        </mxCell>
        <mxCell id="Vv6Zkrfm-g0jwWEZShg1-8" style="edgeStyle=orthogonalEdgeStyle;rounded=0;orthogonalLoop=1;jettySize=auto;html=1;" edge="1" parent="1" source="Vv6Zkrfm-g0jwWEZShg1-2" target="Vv6Zkrfm-g0jwWEZShg1-6">
          <mxGeometry relative="1" as="geometry">
            <Array as="points">
              <mxPoint x="-200" y="665" />
              <mxPoint x="-200" y="590" />
            </Array>
          </mxGeometry>
        </mxCell>
        <mxCell id="Vv6Zkrfm-g0jwWEZShg1-2" value="&lt;p style=&quot;margin:0px;margin-top:6px;text-align:center;&quot;&gt;&lt;b&gt;OpalPluginVideoFormatInternal::&lt;/b&gt;&lt;br&gt;&lt;/p&gt;&lt;div style=&quot;text-align: center;&quot;&gt;&lt;b&gt;OpalPluginVideoFormatInternal&lt;/b&gt;&lt;/div&gt;&lt;hr&gt;&lt;p style=&quot;margin:0px;margin-left:8px;&quot;&gt;OpalVideoFormatInternal&lt;/p&gt;&lt;p style=&quot;margin:0px;margin-left:8px;&quot;&gt;OpalPluginMediaFormatInternal&lt;br&gt;PopulateOptions&lt;/p&gt;" style="align=left;overflow=fill;html=1;dropTarget=0;whiteSpace=wrap;" vertex="1" parent="1">
          <mxGeometry x="-460" y="610" width="245" height="110" as="geometry" />
        </mxCell>
        <mxCell id="Vv6Zkrfm-g0jwWEZShg1-3" value="" style="shape=component;jettyWidth=8;jettyHeight=4;" vertex="1" parent="Vv6Zkrfm-g0jwWEZShg1-2">
          <mxGeometry x="1" width="20" height="20" relative="1" as="geometry">
            <mxPoint x="-24" y="4" as="offset" />
          </mxGeometry>
        </mxCell>
        <mxCell id="Vv6Zkrfm-g0jwWEZShg1-9" style="edgeStyle=orthogonalEdgeStyle;rounded=0;orthogonalLoop=1;jettySize=auto;html=1;" edge="1" parent="1" source="Vv6Zkrfm-g0jwWEZShg1-6" target="Vv6Zkrfm-g0jwWEZShg1-7">
          <mxGeometry relative="1" as="geometry" />
        </mxCell>
        <mxCell id="Vv6Zkrfm-g0jwWEZShg1-6" value="OpalMediaFormatInternal::OpalMediaFormatInternal" style="rounded=0;whiteSpace=wrap;html=1;" vertex="1" parent="1">
          <mxGeometry x="-180" y="560" width="290" height="60" as="geometry" />
        </mxCell>
        <mxCell id="Vv6Zkrfm-g0jwWEZShg1-5" value="OpalPluginVideoFormatInternal::Clone()" style="rounded=0;whiteSpace=wrap;html=1;" vertex="1" parent="1">
          <mxGeometry x="-730" y="635" width="230" height="60" as="geometry" />
        </mxCell>
        <mxCell id="Vv6Zkrfm-g0jwWEZShg1-7" value="一个用于内部使用的媒体格式类，它包含:&lt;span style=&quot;box-sizing: inherit; display: block; height: 8px; color: rgb(29, 28, 29); font-family: Slack-Lato, Slack-Fractions, appleLogo, sans-serif; font-size: 15px; font-variant-ligatures: common-ligatures; text-align: left; background-color: rgb(248, 248, 248);&quot; data-stringify-type=&quot;paragraph-break&quot; class=&quot;c-mrkdwn__br&quot; aria-label=&quot;&quot;&gt;&lt;/span&gt;&lt;span style=&quot;color: rgb(29, 28, 29); font-family: Slack-Lato, Slack-Fractions, appleLogo, sans-serif; font-size: 15px; font-variant-ligatures: common-ligatures; text-align: left; background-color: rgb(248, 248, 248);&quot;&gt;- 媒体格式的名称,如 opus, G722, PCMU 等&lt;/span&gt;&lt;br style=&quot;box-sizing: inherit; color: rgb(29, 28, 29); font-family: Slack-Lato, Slack-Fractions, appleLogo, sans-serif; font-size: 15px; font-variant-ligatures: common-ligatures; text-align: left; background-color: rgb(248, 248, 248);&quot;&gt;&lt;span style=&quot;color: rgb(29, 28, 29); font-family: Slack-Lato, Slack-Fractions, appleLogo, sans-serif; font-size: 15px; font-variant-ligatures: common-ligatures; text-align: left; background-color: rgb(248, 248, 248);&quot;&gt;- 媒体格式的 clock rate,比如8000Hz, 16000Hz 等&lt;/span&gt;&lt;br style=&quot;box-sizing: inherit; color: rgb(29, 28, 29); font-family: Slack-Lato, Slack-Fractions, appleLogo, sans-serif; font-size: 15px; font-variant-ligatures: common-ligatures; text-align: left; background-color: rgb(248, 248, 248);&quot;&gt;&lt;span style=&quot;color: rgb(29, 28, 29); font-family: Slack-Lato, Slack-Fractions, appleLogo, sans-serif; font-size: 15px; font-variant-ligatures: common-ligatures; text-align: left; background-color: rgb(248, 248, 248);&quot;&gt;- 媒体格式的ptime,用于RTP打包&lt;/span&gt;&lt;br style=&quot;box-sizing: inherit; color: rgb(29, 28, 29); font-family: Slack-Lato, Slack-Fractions, appleLogo, sans-serif; font-size: 15px; font-variant-ligatures: common-ligatures; text-align: left; background-color: rgb(248, 248, 248);&quot;&gt;&lt;span style=&quot;color: rgb(29, 28, 29); font-family: Slack-Lato, Slack-Fractions, appleLogo, sans-serif; font-size: 15px; font-variant-ligatures: common-ligatures; text-align: left; background-color: rgb(248, 248, 248);&quot;&gt;- 媒体格式的maxptime,用于RTP打包&lt;/span&gt;&lt;br style=&quot;box-sizing: inherit; color: rgb(29, 28, 29); font-family: Slack-Lato, Slack-Fractions, appleLogo, sans-serif; font-size: 15px; font-variant-ligatures: common-ligatures; text-align: left; background-color: rgb(248, 248, 248);&quot;&gt;&lt;span style=&quot;color: rgb(29, 28, 29); font-family: Slack-Lato, Slack-Fractions, appleLogo, sans-serif; font-size: 15px; font-variant-ligatures: common-ligatures; text-align: left; background-color: rgb(248, 248, 248);&quot;&gt;- 媒体格式是否需要FEC(前向纠错)&lt;/span&gt;&lt;br style=&quot;box-sizing: inherit; color: rgb(29, 28, 29); font-family: Slack-Lato, Slack-Fractions, appleLogo, sans-serif; font-size: 15px; font-variant-ligatures: common-ligatures; text-align: left; background-color: rgb(248, 248, 248);&quot;&gt;&lt;span style=&quot;color: rgb(29, 28, 29); font-family: Slack-Lato, Slack-Fractions, appleLogo, sans-serif; font-size: 15px; font-variant-ligatures: common-ligatures; text-align: left; background-color: rgb(248, 248, 248);&quot;&gt;- 媒体格式的其他一些细节参数&lt;/span&gt;&lt;br&gt;&lt;br&gt;主要被Opal的其他模块使用,比如:&lt;br&gt;&lt;span style=&quot;color: rgb(29, 28, 29); font-family: Slack-Lato, Slack-Fractions, appleLogo, sans-serif; font-size: 15px; font-variant-ligatures: common-ligatures; text-align: left; background-color: rgb(248, 248, 248);&quot;&gt;- RTP机制使用这个类中的clock rate, ptime, maxptime等信息来组包RTP数据&lt;/span&gt;&lt;br style=&quot;box-sizing: inherit; color: rgb(29, 28, 29); font-family: Slack-Lato, Slack-Fractions, appleLogo, sans-serif; font-size: 15px; font-variant-ligatures: common-ligatures; text-align: left; background-color: rgb(248, 248, 248);&quot;&gt;&lt;span style=&quot;color: rgb(29, 28, 29); font-family: Slack-Lato, Slack-Fractions, appleLogo, sans-serif; font-size: 15px; font-variant-ligatures: common-ligatures; text-align: left; background-color: rgb(248, 248, 248);&quot;&gt;- SDP生成器使用这个类中的媒体格式名称及参数生成SDP&lt;/span&gt;&lt;br style=&quot;box-sizing: inherit; color: rgb(29, 28, 29); font-family: Slack-Lato, Slack-Fractions, appleLogo, sans-serif; font-size: 15px; font-variant-ligatures: common-ligatures; text-align: left; background-color: rgb(248, 248, 248);&quot;&gt;&lt;span style=&quot;color: rgb(29, 28, 29); font-family: Slack-Lato, Slack-Fractions, appleLogo, sans-serif; font-size: 15px; font-variant-ligatures: common-ligatures; text-align: left; background-color: rgb(248, 248, 248);&quot;&gt;- 编解码器管理器使用这个类来管理和选择支持的编解码器&lt;br&gt;&lt;/span&gt;&lt;br&gt;1. 描述一种媒体格式的详细信息&lt;br style=&quot;box-sizing: inherit; color: rgb(29, 28, 29); font-family: Slack-Lato, Slack-Fractions, appleLogo, sans-serif; font-size: 15px; font-variant-ligatures: common-ligatures; text-align: left; background-color: rgb(248, 248, 248);&quot;&gt;2. 让Opal的其他模块可以使用这些信息来进行媒体处理,比如RTP传输,SDP生成等&lt;br&gt;&lt;span style=&quot;color: rgb(29, 28, 29); font-family: Slack-Lato, Slack-Fractions, appleLogo, sans-serif; font-size: 15px; font-variant-ligatures: common-ligatures; text-align: left; background-color: rgb(248, 248, 248);&quot;&gt;Opal框架中描述媒体格式信息的基石, Opal的大部分媒体相关的处理逻辑都基于这个类。&lt;br&gt;&lt;/span&gt;必须对常见的媒体格式如OPUS,PCMU,G722等的信息进行准确定义,才能使Opal框架正确地支持这些媒体格式。&lt;span style=&quot;color: rgb(29, 28, 29); font-family: Slack-Lato, Slack-Fractions, appleLogo, sans-serif; font-size: 15px; font-variant-ligatures: common-ligatures; text-align: left; background-color: rgb(248, 248, 248);&quot;&gt;&lt;br&gt;&lt;/span&gt;" style="text;strokeColor=none;align=center;fillColor=none;html=1;verticalAlign=middle;whiteSpace=wrap;rounded=0;" vertex="1" parent="1">
          <mxGeometry x="190" y="220" width="600" height="350" as="geometry" />
        </mxCell>
        <mxCell id="Vv6Zkrfm-g0jwWEZShg1-10" value="payloadType 为 127，RTX (Retransmission)&lt;br&gt;RTX 使用特殊的 payload type(通常是 127)来标识重传的数据包。原始的数据包仍然使用正常的 payload type。RTX 数据包中会包含原始数据包的序列号,使得接收端能够找到丢失的数据包,完成数据包的重组。&lt;br&gt;&lt;span style=&quot;text-align: left; background-color: rgb(248, 248, 248);&quot;&gt;&lt;br&gt;&lt;font face=&quot;Slack-Lato, Slack-Fractions, appleLogo, sans-serif&quot; color=&quot;#1d1c1d&quot;&gt;OpalMediaFormatInternal 333 ok!fullName:H.264-High rtpPayloadType: [pt=100] pt: [pt=96]&lt;/font&gt;&lt;br&gt;&lt;/span&gt;" style="text;strokeColor=none;align=center;fillColor=none;html=1;verticalAlign=middle;whiteSpace=wrap;rounded=0;" vertex="1" parent="1">
          <mxGeometry x="830" y="310" width="390" height="110" as="geometry" />
        </mxCell>
      </root>
    </mxGraphModel>
  </diagram>
</mxfile>
